<?xml version="1.0" encoding="UTF-8" standalone="no"?>
<!-- Created with Inkscape (http://www.inkscape.org/) -->

<svg
   width="52mm"
   height="74mm"
   viewBox="0 0 52 74"
   version="1.1"
   id="svg1"
   xml:space="preserve"
   inkscape:version="1.3.2 (091e20e, 2023-11-25, custom)"
   sodipodi:docname="knight.svg"
   xmlns:inkscape="http://www.inkscape.org/namespaces/inkscape"
   xmlns:sodipodi="http://sodipodi.sourceforge.net/DTD/sodipodi-0.dtd"
   xmlns="http://www.w3.org/2000/svg"
   xmlns:svg="http://www.w3.org/2000/svg"><sodipodi:namedview
     id="namedview1"
     pagecolor="#ffffff"
     bordercolor="#000000"
     borderopacity="0.25"
     inkscape:showpageshadow="2"
     inkscape:pageopacity="0.0"
     inkscape:pagecheckerboard="0"
     inkscape:deskcolor="#d1d1d1"
     inkscape:document-units="mm"
     inkscape:zoom="1.9578168"
     inkscape:cx="-2.5538651"
     inkscape:cy="164.21353"
     inkscape:window-width="1920"
     inkscape:window-height="991"
     inkscape:window-x="-9"
     inkscape:window-y="-9"
     inkscape:window-maximized="1"
     inkscape:current-layer="layer1" /><defs
     id="defs1"><linearGradient
       id="swatch4"><stop
         style="stop-color:#000000;stop-opacity:1;"
         offset="0"
         id="stop4" /></linearGradient></defs><g
     inkscape:label="Layer 1"
     inkscape:groupmode="layer"
     id="layer1"><g
       id="g1"
       transform="translate(-0.15485398,1.6830967)"><path
         style="fill:#000000;fill-opacity:1;fill-rule:evenodd;stroke:none;stroke-width:0.126833;stroke-dasharray:none"
         d="m 33.105853,5.9469013 -1.091741,4.9333647 c 1.83517,0.513002 3.421658,0.404319 5.562579,1.68171 l 1.746392,2.716607 10.866436,9.508122 c 0.03746,1.262309 0.377171,2.585072 -0.388092,3.68683 -1.883775,1.319439 -3.879233,2.700765 -6.080027,2.910653 l -2.975328,-0.711494 c -1.323479,-1.09101 -1.93719,-2.300312 -4.592363,-3.169374 -2.421257,0.560982 -4.412932,1.515543 -7.600032,1.61702 -1.523254,-0.04907 -1.850018,0.200309 -1.131921,0.840859 l 5.433215,5.04513 c 1.882712,2.04467 3.333867,4.14329 4.527681,6.27407 1.363176,3.75935 1.970186,7.08746 1.972772,11.70729 l -1.067239,4.72172 c -1.586134,0.39228 -2.927709,0.12814 -3.137033,0.097 -0.293895,0.83462 -0.187368,1.53575 0.03233,2.19916 l 2.263841,0.097 0.388084,2.39319 2.942987,-0.3234 c 2.558053,0.008 1.956793,6.17036 2.813638,6.79151 -0.203452,0.57676 -0.680646,0.9971 -1.487672,1.22896 L 5.8829196,69.869409 c -0.754017,-0.49343 -0.453962,0.33886 -1.060761,-1.68017 0.957313,-1.81421 1.244286,-3.94264 2.225023,-5.88752 l 5.4535094,-0.10257 -0.08497,-2.16127 2.263842,-0.12936 c 0.326666,-0.71149 0.340081,-1.42299 -0.06467,-2.13448 h -2.112845 c 0.605559,-3.21266 1.958059,-4.39288 2.048155,-6.33875 0.402714,-1.05415 -2.544123,-0.99178 -3.816186,-1.48767 0.886579,-3.39412 0.487896,-6.31166 -0.394586,-9.35197 C 9.9057616,37.151799 9.5660636,33.041859 8.2853296,29.476991 8.7017446,21.68436 10.245414,16.259474 15.272883,11.567464 16.87764,10.069784 19.334804,9.5745843 21.341725,8.2282833 l 3.622141,-0.905525 2.913336,-1.138546 2.713924,-1.060613 c 1.127172,0.02261 4.084193,-1.549324 2.514708,0.823252 z"
         id="path1-6"
         sodipodi:nodetypes="ccccccccccccccccccccccccccccccccccsccccc"
         inkscape:label="path1-6" /><path
         style="fill:none;fill-opacity:1;fill-rule:evenodd;stroke:#ff0000;stroke-width:0.727;stroke-dasharray:none;stroke-opacity:1"
         d="m 33.105853,5.9469013 -1.091741,4.9333647 c 1.83517,0.513002 3.421658,0.404319 5.562579,1.68171 l 1.746392,2.716607 10.866436,9.508122 c 0.03746,1.262309 0.377171,2.585072 -0.388092,3.68683 -1.883775,1.319439 -3.879233,2.700765 -6.080027,2.910653 l -2.975328,-0.711494 c -1.323479,-1.09101 -1.93719,-2.300312 -4.592363,-3.169374 -2.421257,0.560982 -4.412932,1.515543 -7.600032,1.61702 -1.523254,-0.04907 -1.850018,0.200309 -1.131921,0.840859 l 5.433215,5.04513 c 1.882712,2.04467 3.333867,4.14329 4.527681,6.27407 1.363176,3.75935 1.970186,7.08746 1.972772,11.70729 l -1.067239,4.72172 c -1.586134,0.39228 -2.927709,0.12814 -3.137033,0.097 -0.293895,0.83462 -0.187368,1.53575 0.03233,2.19916 l 2.263841,0.097 0.388084,2.39319 3.181887,-0.13228 c 1.974775,1.246941 2.372402,5.98198 2.186004,7.54267 L 5.8829196,69.869409 c -1.9028493,-1.245008 0.6565711,-6.560898 1.164262,-7.56769 l 5.4535094,-0.10257 -0.08497,-2.16127 2.263842,-0.12936 c 0.326666,-0.71149 0.340081,-1.42299 -0.06467,-2.13448 h -2.112845 c 0.605559,-3.21266 1.958059,-4.39288 2.048155,-6.33875 0.402714,-1.05415 -2.544123,-0.99178 -3.816186,-1.48767 0.886579,-3.39412 0.487896,-6.31166 -0.394586,-9.35197 C 9.9057616,37.151799 9.5660636,33.041859 8.2853296,29.476991 8.7017446,21.68436 10.245414,16.259474 15.272883,11.567464 16.87764,10.069784 19.334804,9.5745843 21.341725,8.2282833 l 3.622141,-0.905525 2.913336,-1.138546 2.713924,-1.060613 c 1.127172,0.02261 4.084193,-1.549324 2.514708,0.823252 z"
         id="path2"
         sodipodi:nodetypes="ccccccccccccccccccccccccccccccccscccccc"
         inkscape:label="path1-6" /><path
         style="fill:#00ff0f;fill-opacity:1;fill-rule:evenodd;stroke:none;stroke-width:0.427;stroke-dasharray:none;stroke-opacity:1"
         id="path3"
         sodipodi:type="arc"
         sodipodi:cx="31.78516"
         sodipodi:cy="17.142193"
         sodipodi:rx="2.580116"
         sodipodi:ry="2.1978765"
         sodipodi:start="0"
         sodipodi:end="3.8471595"
         sodipodi:open="true"
         sodipodi:arc-type="arc"
         d="m 34.365276,17.142193 a 2.580116,2.1978765 0 0 1 -1.846258,2.107098 2.580116,2.1978765 0 0 1 -2.896515,-0.908462 2.580116,2.1978765 0 0 1 0.198559,-2.623883" /></g></g></svg>
